<svg width="18" height="14" viewBox="0 0 18 14" fill="none" xmlns="http://www.w3.org/2000/svg">
<path d="M15.6666 0.17334H2.33329C1.41413 0.17334 0.666626 0.92084 0.666626 1.84001V11.84C0.666626 12.7592 1.41413 13.5067 2.33329 13.5067H15.6666C16.5858 13.5067 17.3333 12.7592 17.3333 11.84V1.84001C17.3333 0.92084 16.5858 0.17334 15.6666 0.17334ZM15.6666 1.84001V2.26584L8.99996 7.45167L2.33329 2.26667V1.84001H15.6666ZM2.33329 11.84V4.37667L8.48829 9.16417C8.63829 9.28167 8.81913 9.34001 8.99996 9.34001C9.18079 9.34001 9.36163 9.28167 9.51163 9.16417L15.6666 4.37667L15.6683 11.84H2.33329Z" fill="#7E7E7E"/>
</svg>
