<svg width="20" height="21" viewBox="0 0 20 21" fill="none" xmlns="http://www.w3.org/2000/svg">
<path d="M9.99996 12.5065C11.8383 12.5065 13.3333 11.0115 13.3333 9.17318C13.3333 7.33484 11.8383 5.83984 9.99996 5.83984C8.16163 5.83984 6.66663 7.33484 6.66663 9.17318C6.66663 11.0115 8.16163 12.5065 9.99996 12.5065ZM9.99996 7.50651C10.9191 7.50651 11.6666 8.25401 11.6666 9.17318C11.6666 10.0923 10.9191 10.8398 9.99996 10.8398C9.08079 10.8398 8.33329 10.0923 8.33329 9.17318C8.33329 8.25401 9.08079 7.50651 9.99996 7.50651Z" fill="#7E7E7E"/>
<path d="M9.51666 19.018C9.66166 19.1213 9.83082 19.173 9.99999 19.173C10.1692 19.173 10.3383 19.1213 10.4833 19.018C10.7367 18.8388 16.6908 14.5397 16.6667 9.17301C16.6667 5.49718 13.6758 2.50635 9.99999 2.50635C6.32416 2.50635 3.33333 5.49718 3.33333 9.16885C3.30916 14.5397 9.26333 18.8388 9.51666 19.018ZM9.99999 4.17301C12.7575 4.17301 15 6.41551 15 9.17718C15.0175 12.8755 11.3433 16.1963 9.99999 17.2855C8.65749 16.1955 4.98249 12.8738 4.99999 9.17301C4.99999 6.41551 7.24249 4.17301 9.99999 4.17301Z" fill="#7E7E7E"/>
</svg>
