<svg width="17" height="17" viewBox="0 0 17 17" fill="none" xmlns="http://www.w3.org/2000/svg">
<path d="M12.7558 9.08406C12.43 8.75822 11.9033 8.75822 11.5775 9.08406L10.2491 10.4124C9.63329 10.2291 8.48412 9.81239 7.75579 9.08406C7.02745 8.35572 6.61079 7.20656 6.42745 6.59072L7.75579 5.26239C8.08162 4.93656 8.08162 4.40989 7.75579 4.08406L4.42245 0.750723C4.09662 0.424889 3.56995 0.424889 3.24412 0.750723L0.984119 3.01072C0.667453 3.32739 0.489119 3.76239 0.495786 4.20656C0.514953 5.39322 0.829119 9.51489 4.07745 12.7632C7.32579 16.0116 11.4475 16.3249 12.635 16.3449C12.6391 16.3449 12.6541 16.3449 12.6583 16.3449C13.0983 16.3449 13.5141 16.1716 13.8291 15.8566L16.0891 13.5966C16.415 13.2707 16.415 12.7441 16.0891 12.4182L12.7558 9.08406ZM12.65 14.6774C11.61 14.6599 8.05162 14.3807 5.25579 11.5841C2.45079 8.77906 2.17912 5.20822 2.16245 4.18906L3.83329 2.51822L5.98829 4.67322L4.91079 5.75072C4.71162 5.94906 4.62662 6.23572 4.68412 6.51072C4.70412 6.60656 5.19329 8.87906 6.57662 10.2624C7.95995 11.6457 10.2325 12.1349 10.3283 12.1549C10.6058 12.2141 10.89 12.1282 11.0883 11.9291L12.1666 10.8516L14.3216 13.0066L12.65 14.6774Z" fill="#7E7E7E"/>
</svg>
